<?xml version="1.0" encoding="utf-8"?><svg xmlns="http://www.w3.org/2000/svg" width="117" height="46" viewBox="0 -12.52 117 46"><path fill="#FFF" d="M0 0c.62.02 1.4.07 2.07.07h1.15C4.12.04 5.05 0 5.96 0c4.63 0 5.5 2 5.5 3.46 0 2.36-2.26 3.14-3.38 3.36v.06c1.8.16 4.9 1 4.9 3.93 0 4.06-5.08 3.97-6.4 3.97-1.26 0-2.5-.06-3.76-.06-.68 0-1.67 0-2.82.06v-.5l.55-.05c.38-.02.95-.1 1.28-.6.27-.37.31-.99.31-1.98V3.13c0-.99-.04-1.6-.3-1.98C1.5.66.92.57.54.55L0 .51V0zm4.44 6.22c0 .27.02.5.42.5h1.16c1.92 0 3-1.4 3-3.06 0-1.59-.81-3.1-3.33-3.1h-.55c-.66 0-.7.26-.7.68v4.98zm0 5.5c0 1.21.15 2.49 2.44 2.49 2.14 0 3.38-1.33 3.38-3.4 0-1.39-.6-3.5-4.1-3.5H4.92c-.24 0-.48.02-.48.37v4.04zm18.95 1.41a4.68 4.68 0 0 1-3.82 1.9c-3.53 0-5.25-2.52-5.25-4.97a5.2 5.2 0 0 1 5.27-5.18c2.4 0 4.04 1.6 4.17 3.42v.24c-.02.15-.06.2-.37.2h-6.73c-.07.35-.09.7-.09 1.06 0 2.82 1.63 4.37 3.53 4.37a3.7 3.7 0 0 0 2.82-1.53l.47.49zM20.76 8.1c.8-.02.84-.1.84-.49 0-1.74-1.13-2.23-2.07-2.23-1.5 0-2.52 1.28-2.76 2.78l4-.06zm9.97-3.22V7.7h-.44c-.2-1.08-.95-2.32-2.34-2.32-.86 0-1.43.51-1.43 1.24 0 1.1 1.26 1.6 2.18 2.12 1.33.73 2.87 1.43 2.87 3.29 0 1.74-1.48 3-3.3 3-.74 0-1.66-.2-2.5-.82l-.44.66h-.35v-3.2h.41c.2 1.08.93 2.85 2.76 2.85 1.17 0 1.88-.73 1.88-1.59s-.55-1.3-1.08-1.65c-1.75-1.15-3.86-1.55-3.86-3.71 0-1.26.95-2.7 2.75-2.7.9 0 1.73.32 2.19.56l.44-.55h.26zm4.24 7.22c0 .78 0 2.26 1.37 2.26.57 0 1.26-.42 1.63-1.08l.4.31-.2.31c-.66 1.02-1.7 1.13-2.32 1.13-2.62 0-2.78-1.73-2.78-2.67V5.74H31.9v-.25l.24-.15a6.5 6.5 0 0 0 2.48-2.71h.35v2.53h2.56v.58h-2.56v6.35zm12.47-.98c0 2.87 1.25 3.05 2.9 3.05 2.54 0 4.77-.2 5.06-3.34h.55l-.2 3.95-.88-.04h-7.46c-1.56 0-1.94-.07-4.41.04v-.5l.55-.05c.38-.02.95-.1 1.28-.6.27-.37.31-.99.31-1.98V3.13c0-.99-.04-1.6-.3-1.98-.34-.49-.91-.58-1.29-.6L43 .51V0c.44.02 1.57.07 2.07.07h2c.43 0 1.12 0 2.77-.07v.5l-.49.05c-1.91.18-1.91 1.04-1.91 2.91v7.66zm19.98 2.43c-.55 1.08-1.32 1.48-1.98 1.48-.84 0-1.66-.6-1.92-1.61-1.02.86-2.19 1.6-3.62 1.6-1.57 0-2.38-.99-2.38-1.98 0-2.2 2.56-3.02 4.94-4.02 1.01-.42.97-.5.97-.92v-.31c0-1.66-.29-2.4-2-2.4-1.26 0-1.95.28-2.01 1.23-.03.24-.03 1.04-.95 1.04-.42 0-.82-.27-.82-.82 0-1.08 1.43-1.96 4.08-1.96 3.49 0 3.6 1.63 3.6 3.83v3.27c0 .88 0 2.05.8 2.05.33 0 .59-.26.76-.55l.12-.18.41.25zm-3.99-4.42l-.4.18c-1.6.7-3.53 1.57-3.53 3.33 0 .75.49 1.46 1.48 1.46 1.04 0 2.12-.97 2.45-1.26v-3.7zm3.51-2.23c-.4-1.14-.82-1.23-1.22-1.25l-.28-.02v-.51l2.4.07 2.28-.07v.5h-.34c-.35 0-.94.05-.94.65 0 .3.1.57.17.81l1.61 5.34 2.65-7.3h.44l2.54 7.32a55.03 55.03 0 0 0 1.8-5.34c.18-.64.27-1.34-.92-1.45l-.24-.02v-.51l1.79.07 1.47-.07v.5c-.94.25-1.25.93-1.4 1.37-.7 1.8-1.07 3.71-2.85 8.17h-.47l-2.6-6.9-2.58 6.9h-.47L66.94 6.9z"/><path fill="#FFF" d="M79.67 6.97c-.4-.9-.69-1.34-1.55-1.34v-.51l2.3.07 2.51-.07v.5l-.42.05c-.6.07-.94.11-.94.6 0 .46.22.99.61 1.96l1.75 4.2 1.78-4.31c.49-1.17.53-1.55.53-1.83 0-.58-.57-.6-.81-.62l-.4-.04v-.51l1.7.07 1.5-.07v.5c-1.04-.04-1.28 1.2-2.16 3.23l-3.76 8.71c-.92 2.17-1.47 3.36-2.29 3.36a.65.65 0 0 1-.64-.67c0-.24.11-.6.57-.9.76-.53.9.02 1.81-2.05l1.17-2.7-3.26-7.63zm17.43 6.16a4.68 4.68 0 0 1-3.82 1.9c-3.53 0-5.25-2.52-5.25-4.97a5.2 5.2 0 0 1 5.27-5.18c2.4 0 4.04 1.6 4.17 3.42v.24c-.02.15-.06.2-.37.2h-6.73c-.07.35-.09.7-.09 1.06 0 2.82 1.63 4.37 3.53 4.37a3.7 3.7 0 0 0 2.82-1.53l.47.49zM94.47 8.1c.8-.02.84-.1.84-.49 0-1.74-1.12-2.23-2.07-2.23-1.5 0-2.52 1.28-2.76 2.78l4-.06zm3.66-2.56c.73-.1 1.77-.27 3.03-.8.1.36.24.9.29 2.4a3.54 3.54 0 0 1 3.26-2.26c1.24 0 1.61.68 1.61 1.17 0 .3-.2.79-.75.79-.49 0-.77-.27-.97-.62-.2-.35-.27-.55-.68-.55-.53 0-1 .29-1.37.64-.82.8-.9 1.7-.9 3.29v3.04c0 .84-.03 1.46 1.25 1.59l.44.05v.5l-2.56-.06c-.68-.03-1.74.02-2.58.06v-.5l.33-.03c1.24-.08 1.22-1.08 1.22-1.6V8.07c0-1.81-.42-1.97-1.26-2.01l-.36-.02v-.51zm14.57-.66V7.7h-.45c-.2-1.08-.95-2.32-2.33-2.32-.87 0-1.44.51-1.44 1.24 0 1.1 1.26 1.6 2.19 2.12 1.32.73 2.87 1.43 2.87 3.29 0 1.74-1.48 3-3.32 3-.72 0-1.65-.2-2.49-.82l-.44.66h-.35v-3.2h.42c.2 1.08.92 2.85 2.76 2.85 1.16 0 1.87-.73 1.87-1.59s-.55-1.3-1.08-1.65c-1.75-1.15-3.86-1.55-3.86-3.71 0-1.26.95-2.7 2.75-2.7.91 0 1.73.32 2.19.56l.44-.55h.27zm2.69.1a1.59 1.59 0 1 1 0 3.17 1.59 1.59 0 0 1 0-3.17m0-.37a1.95 1.95 0 1 0 0 3.9 1.95 1.95 0 0 0 0-3.9z"/><path fill="#FFF" d="M115.1 7.06c0 .3.07.32.21.34h.08v.07h-.87V7.4h.07c.05 0 .13-.02.17-.08.03-.05.04-.13.04-.26V5.93c0-.13 0-.21-.04-.26-.04-.07-.12-.08-.17-.08h-.07V5.5l.27.01h.16c.6 0 1.14-.08 1.14.48 0 .3-.24.5-.54.51l.65.74c.06.07.14.13.27.15v.07h-.49l-.09-.1-.04-.05a.65.65 0 0 0-.03-.05l-.09-.1-.38-.48c-.04-.05-.1-.13-.2-.13h-.05v.5zm0-.57h.04c.22 0 .43 0 .55-.21a.47.47 0 0 0 .06-.24c0-.05 0-.1-.02-.16-.1-.29-.37-.29-.5-.29h-.03c-.04 0-.1 0-.1.08v.82z"/></svg>