<?xml version="1.0" encoding="utf-8"?><svg xmlns="http://www.w3.org/2000/svg" width="45" height="46" viewBox="0 0.28 45 46"><path fill="#FFF" d="M8.5 18.3c0-.05-.01-.1-.05-.13l-.11-.05-.11.05c-.03.03-.05.12-.06.26 0 .38-.12 1.25-.33 2.6a17.27 17.27 0 0 1-1 3.77c-.32.78-.64 1.3-.97 1.55-.33.24-.72.37-1.16.37h-.62V5.48h.97c.05 0 .09-.02.12-.06a.19.19 0 0 0 .05-.14.17.17 0 0 0-.05-.12.17.17 0 0 0-.12-.05H.19c-.1.07-.16.13-.16.19 0 .05.05.1.16.18h.9v21.25h-.9c-.05 0-.1.02-.13.05a.17.17 0 0 0-.05.14c0 .05.02.1.05.13.03.03.08.05.13.05H8.4l.12-8.8zm.67-13c0 .05.05.1.15.18h.94v21.25h-.93a.24.24 0 0 0-.16.05.17.17 0 0 0-.06.14c0 .04.02.08.06.12.04.04.09.06.16.06h8.3v-9.04a.15.15 0 0 0-.05-.11.2.2 0 0 0-.14-.05c-.06 0-.12.06-.19.16v.97a16.7 16.7 0 0 1-1.24 5.7 4.1 4.1 0 0 1-1.1 1.54c-.39.3-.78.45-1.18.45h-.47v-10.2c0-.14.03-.25.09-.31a.26.26 0 0 1 .2-.1c.34 0 .67.25.98.74.53.85.8 2 .8 3.44v1.05c0 .05 0 .09.04.12.04.04.08.05.13.05s.08-.01.11-.05a.19.19 0 0 0 .05-.12V10.47a.19.19 0 0 0-.05-.12.15.15 0 0 0-.11-.05.17.17 0 0 0-.13.05.17.17 0 0 0-.05.12v1.15c0 1.47-.23 2.56-.7 3.27-.35.53-.8.82-1.36.88V5.49h.9c.52 0 .88.1 1.1.3.4.36.83 1.24 1.27 2.63.44 1.4.7 2.9.77 4.51 0 .25.02.38.04.42.03.03.07.05.12.05.06 0 .12-.05.17-.15V5.11H9.31c-.1.06-.14.12-.14.19zm13.59 11.68a.2.2 0 0 0-.05.14c0 .05.01.1.05.13.03.04.07.05.12.05h.76v8.15c0 .5-.11.89-.34 1.18-.16.2-.39.3-.67.3a.88.88 0 0 1-.66-.26 1.02 1.02 0 0 1-.26-.74V7.03c0-.66.1-1.11.3-1.36a.86.86 0 0 1 .71-.39c.52 0 .96.31 1.34.93.67 1.1 1.16 3.42 1.5 6.96a5 5 0 0 0 .08.77c.02.04.07.06.13.06.05 0 .1-.02.13-.05a.15.15 0 0 0 .05-.11V5.1c0-.05 0-.08-.03-.1a.1.1 0 0 0-.07-.03c-.08 0-.16.06-.24.17l-.96 1.36c-.56-1.09-1.26-1.63-2.1-1.63-1.18 0-2.13.8-2.86 2.4-.73 1.6-1.1 3.7-1.1 6.3v5.45c0 2.54.35 4.56 1.03 6.05.68 1.5 1.69 2.24 3.01 2.24.48 0 .9-.14 1.27-.42.36-.28.83-.9 1.4-1.86l.83 2.06c.04.09.07.14.1.17a.2.2 0 0 0 .12.05c.03 0 .06-.02.08-.05.03-.04.05-.1.05-.17v-9.81h.66c.04 0 .08-.02.11-.05a.19.19 0 0 0 .05-.13.2.2 0 0 0-.05-.14.15.15 0 0 0-.11-.05h-4.26a.16.16 0 0 0-.12.06zm4.27 9.78a.24.24 0 0 0-.04.15c0 .06.02.1.05.14.03.03.08.05.13.05h2.5c.04 0 .09-.02.12-.05a.19.19 0 0 0 .05-.14.2.2 0 0 0-.06-.15l-.23-.07a1 1 0 0 1-.67-.4 1.64 1.64 0 0 1-.24-.98l.01-.4.3-2.34h2.69l.38 4.16h-.7a.15.15 0 0 0-.12.05.2.2 0 0 0-.04.14c0 .05.01.1.04.13s.07.05.12.05h4.4c.1-.07.16-.13.16-.18 0-.06-.06-.12-.16-.19h-.66l-2.6-21.31h-1.62l-2.48 19.2a3.9 3.9 0 0 1-.5 1.7.93.93 0 0 1-.65.38l-.18.06zm3.43-15.89l1.11 11.32H29l1.46-11.32zm5.94 15.86a.17.17 0 0 0-.18.18c0 .06.01.1.05.14.03.03.07.05.12.05h8.22l.11-8.8c0-.05-.02-.1-.05-.13l-.11-.05-.12.05a.7.7 0 0 0-.05.26c-.01.38-.12 1.25-.33 2.6a17.3 17.3 0 0 1-1 3.77c-.32.78-.64 1.3-.98 1.55a1.9 1.9 0 0 1-1.15.37h-.62V5.48h.96c.05 0 .1-.02.13-.06a.19.19 0 0 0 .05-.14.17.17 0 0 0-.05-.12.17.17 0 0 0-.13-.05h-4.86c-.11.07-.17.13-.17.19 0 .05.06.1.17.18h.9v21.25h-.92zM19.15.34h.14l-.83 3c-.14.47-.3.48-.53.48l-.17.01-.06.2h2.07l.05-.2h-.21c-.2-.01-.35-.05-.35-.2 0-.1.05-.4.08-.49l.8-2.8h.13c.3 0 .87.03.9.84h.22V.07L19.2.08 17.97.07l-.3 1.06h.23c.2-.73.72-.8 1.25-.8z"/><path fill="#FFF" d="M21.9.5c0 .1-.02.19-.08.38l-.84 3.15h.63l.29-.88c.33-1.04.7-1.33.95-1.33.12 0 .19.09.19.22 0 .03 0 .12-.08.34l-.24.77c-.08.25-.1.37-.1.47 0 .31.19.47.43.47.34 0 .74-.29.98-.9l-.11-.04-.04.07c-.14.28-.3.47-.45.47-.02 0-.12-.01-.12-.16 0-.1.05-.23.09-.34l.18-.57a2.74 2.74 0 0 0 .15-.67c0-.42-.29-.52-.52-.52-.48 0-.86.41-1.06.8L22.74 0c-.33.05-.61.06-1.25.08l-.04.16h.07c.23.03.38.05.38.26zm3.22 3.59c.55 0 .96-.41 1.18-.77l-.15-.12-.06.07c-.1.14-.4.49-.75.49a.39.39 0 0 1-.39-.4c0-.1.01-.26.04-.38l.12-.03c1-.25 1.45-.66 1.45-1.03 0-.26-.25-.49-.75-.49-1.04 0-1.6 1.06-1.6 1.78 0 .64.47.88.9.88zm.67-2.49c.12 0 .22.11.22.27 0 .34-.37.74-.96.92.2-.93.51-1.19.74-1.19zM1.13 41.57c.07.08.16.18.28.28.74.65 2.4 1.56 5.86 1.66h.57v-.01c3.44-.2 6.15-2.25 6.15-4.74 0-2.52-2.8-4.6-6.3-4.74V34h-.42c-3 .06-4.27.68-4.73 1l.32-2.49c.42.04 2.17.15 5.55.15 3.97 0 4.66-4.16 4.66-4.2l.03-.15-.15.04c-.04 0-4.2.92-10-.15l-.09-.01-.02.08c-.21.58-.94 7.15-.97 7.43l-.01.08.07.03c.01 0 .3.12.6 0l.16-.11c.38-.28 1.5-1.1 4.58-1.17v8.56a12.27 12.27 0 0 1-4.08-.7 2.55 2.55 0 1 0-2.74-2.53c0 .66.26 1.26.68 1.71zM22.09 28.3c-3.89 0-7.03 3.36-7.03 7.5 0 4.15 3.14 7.5 7.03 7.5s7.02-3.35 7.02-7.5c0-4.14-3.14-7.5-7.02-7.5zm1.08 14.6H20.9V28.85h2.27V42.9zm7.77-7.1c0 4.15 3.14 7.5 7.02 7.5S45 39.96 45 35.8c0-4.14-3.14-7.5-7.03-7.5s-7.02 3.36-7.02 7.5zm5.84-6.95h2.27V42.9h-2.27V28.85zM.14 2.52h16.02v.41H.14zm.41 43.59h44.23v.41H.55zM28.12 2.52h16.67v.41H28.12z"/></svg>