<?xml version="1.0" encoding="utf-8"?><svg xmlns="http://www.w3.org/2000/svg" width="42" height="46" viewBox="0 -1.95 42 46"><path fill="#FFF" d="M21.23 20.86c-1.25 0-2.13.9-2.13 2.37v7.29c0 1.47.88 2.35 2.13 2.35s2.11-.88 2.11-2.35v-7.29c0-1.47-.86-2.37-2.1-2.37zm7.96-7.49c0-.6-.34-1.06-1-1.06h-1.48v2.12h1.48c.65 0 1-.4 1-1.06zm-13.12-3.29c0-.75-.43-1.23-1.1-1.23h-1.55v2.45h1.56c.66 0 1.1-.47 1.1-1.22zM32.6 20.86c-1.26 0-2.14.9-2.14 2.37v7.29c0 1.47.88 2.35 2.13 2.35s2.11-.88 2.11-2.35v-7.29c0-1.47-.86-2.37-2.1-2.37zM29.04 9.82c0-.58-.3-.98-.91-.98H26.7v1.97h1.42c.62 0 .91-.4.91-1z"/><path fill="#FFF" d="M0 0v42.05h42.05V0H0zm24.85 7.33h3.69c1.54 0 2.27 1.02 2.27 2.2 0 1.08-.6 1.77-1.38 1.97.88.14 1.52 1.04 1.52 2.11 0 1.3-.73 2.33-2.3 2.33h-3.8V7.33zm-3.25 0l2.97 8.6h-1.8l-.53-1.74h-2.91l-.53 1.75H17l2.97-8.61h1.63zm-9.9 0h3.48c1.77 0 2.66 1.28 2.66 2.75s-.89 2.75-2.66 2.75h-1.76v3.1h-1.73v-8.6zm-7.75 0h6.63v8.6H8.83V8.86H5.68v7.09H3.95V7.33zM9.8 35.74c-2.84 0-5.52-1.5-5.56-5.15h3.18c.05 1.57 1.13 2.28 2.38 2.28 1.38 0 2.36-.85 2.36-2.42 0-1.45-.89-2.4-2.45-2.4h-.47v-2.78h.47c1.54 0 2.2-.96 2.2-2.18 0-1.47-.98-2.23-2.13-2.23-1.2 0-2.09.78-2.16 2.1H4.43C4.5 19.85 6.83 18 9.78 18c3.09 0 5.32 2.06 5.32 5 0 1.89-.86 2.97-2.01 3.58 1.25.66 2.26 1.86 2.26 3.97 0 3.49-2.55 5.2-5.55 5.2zm16.73-5.2c0 3.34-2.45 5.2-5.3 5.2s-5.32-1.86-5.32-5.2V23.2c0-3.34 2.48-5.2 5.32-5.2s5.3 1.86 5.3 5.2v7.35zm11.36 0c0 3.34-2.45 5.2-5.3 5.2s-5.32-1.86-5.32-5.2V23.2c0-3.34 2.48-5.2 5.32-5.2s5.3 1.86 5.3 5.2v7.35zm-2.7-14.46h-.3c-2.09-.09-3.3-1.99-3.3-4.44 0-2.44 1.21-4.36 3.3-4.44h.3c2.07.08 3.3 2 3.3 4.44 0 2.45-1.23 4.35-3.3 4.44z"/><path fill="#FFF" d="M35.03 8.73c-1.1 0-1.68 1.32-1.68 2.9 0 1.58.59 2.91 1.68 2.91s1.69-1.33 1.69-2.9c0-1.6-.6-2.9-1.69-2.9zm-14.27.57l-.9 3.43h1.8z"/></svg>