<?xml version="1.0" encoding="utf-8"?>
<!-- Generator: Adobe Illustrator 15.1.0, SVG Export Plug-In . SVG Version: 6.00 Build 0)  -->
<!DOCTYPE svg PUBLIC "-//W3C//DTD SVG 1.1//EN" "http://www.w3.org/Graphics/SVG/1.1/DTD/svg11.dtd">
<svg version="1.1" id="Layer_1" xmlns="http://www.w3.org/2000/svg" xmlns:xlink="http://www.w3.org/1999/xlink" x="0px" y="0px"
	 width="286.3px" height="170.08px" viewBox="0 0 286.3 170.08" enable-background="new 0 0 286.3 170.08" xml:space="preserve">
<g>
	<path fill="#FFFFFF" d="M98.31,48.113l-0.229,6.765h-0.803c-0.114-0.407-0.353-0.658-0.716-0.755c-0.133-0.039-0.334-0.039-0.602,0
		c-0.993,0.406-1.843,0.702-2.55,0.885c-0.707,0.185-1.519,0.276-2.437,0.276c-2.426,0-4.489-1.046-6.188-3.136
		c-1.605-1.974-2.407-4.277-2.407-6.909c0-2.768,0.964-5.109,2.894-7.026c1.853-1.839,3.955-2.758,6.304-2.758
		c0.822,0,1.547,0.097,2.178,0.291c1.471,0.445,2.235,0.667,2.292,0.667c0.21,0,0.391-0.048,0.544-0.145
		c0.248-0.154,0.391-0.426,0.43-0.813h0.801l0.058,6.533h-0.602c-0.306-1.626-0.945-2.991-1.92-4.094
		c-1.05-1.201-2.282-1.8-3.695-1.8c-1.72,0-2.904,0.726-3.554,2.172c-0.478,1.045-0.716,2.637-0.716,4.785v3.997
		c0,2.536,0.373,4.432,1.118,5.7c0.745,1.263,1.786,1.896,3.123,1.896c1.146,0,2.197-0.377,3.152-1.132
		c1.452-1.142,2.36-2.942,2.722-5.4H98.31L98.31,48.113z"/>
	<path fill="#FFFFFF" d="M114.53,54.848h-6.795v-0.636h1.236v-8.627c0-1.209-0.103-2.047-0.309-2.515
		c-0.206-0.466-0.603-0.7-1.192-0.7c-0.706,0-1.304,0.308-1.794,0.923c-0.489,0.615-0.735,1.305-0.735,2.069v8.85h1.236v0.636H99.38
		v-0.636h1.441V34.984H99.38v-0.637h3.113c0.544,0,1-0.037,1.368-0.111c0.373-0.074,0.731-0.186,1.079-0.334v9.295
		c0.51-0.828,1.172-1.485,1.986-1.973c0.813-0.489,1.623-0.732,2.427-0.732c1.529,0,2.588,0.499,3.176,1.496
		c0.373,0.636,0.56,1.496,0.56,2.579v9.645h1.441V54.848L114.53,54.848z"/>
	<path fill="#FFFFFF" d="M128.315,53.445c-0.403,0.561-0.883,1.007-1.442,1.34c-0.558,0.332-1.194,0.499-1.907,0.499
		c-0.495,0-0.993-0.213-1.497-0.639c-0.503-0.425-0.846-0.961-1.03-1.605c-0.53,0.728-1.162,1.283-1.894,1.667
		c-0.732,0.385-1.473,0.577-2.224,0.577c-1.135,0-2.04-0.354-2.717-1.06c-0.678-0.707-1.016-1.6-1.016-2.681
		c0-1.725,0.842-2.93,2.525-3.616c1.226-0.499,3.002-0.748,5.326-0.748v-3.616c0-0.707-0.169-1.241-0.507-1.605
		c-0.339-0.364-0.81-0.546-1.414-0.546c-0.769,0-1.332,0.104-1.689,0.312c-0.356,0.208-0.534,0.447-0.534,0.717
		c0,0.208,0.064,0.405,0.191,0.592c0.202,0.229,0.358,0.405,0.467,0.53c0.11,0.125,0.206,0.296,0.288,0.515s0.124,0.452,0.124,0.701
		c0,0.541-0.174,0.998-0.521,1.372c-0.349,0.374-0.76,0.561-1.236,0.561c-0.567,0-1.029-0.203-1.386-0.607
		c-0.357-0.405-0.535-0.91-0.535-1.512c0-0.956,0.43-1.787,1.29-2.494c1.062-0.873,2.553-1.31,4.475-1.31
		c1.995,0,3.368,0.343,4.118,1.029c0.476,0.442,0.713,1.034,0.713,1.782v8.562v0.69c0,0.229,0.024,0.426,0.069,0.593
		c0.046,0.166,0.124,0.249,0.233,0.249c0.366,0,0.646-0.058,0.837-0.167c0.192-0.109,0.362-0.27,0.508-0.488L128.315,53.445
		L128.315,53.445z M122.439,52.447v-4.738c-1.519,0-2.553,0.405-3.102,1.215c-0.348,0.521-0.521,1.299-0.521,2.338
		c0,0.769,0.055,1.299,0.165,1.59c0.22,0.562,0.659,0.842,1.318,0.842C120.976,53.694,121.689,53.279,122.439,52.447L122.439,52.447
		z"/>
	<path fill="#FFFFFF" d="M150.268,54.848h-6.341v-0.624h1.153v-8.453c0-1.205-0.092-2.032-0.274-2.478
		c-0.183-0.448-0.55-0.676-1.098-0.676c-0.677,0-1.245,0.312-1.703,0.925c-0.457,0.613-0.686,1.289-0.686,2.016v8.666h1.153v0.624
		h-6.15v-0.624h1.153v-8.453c0-1.205-0.091-2.032-0.274-2.478c-0.187-0.448-0.553-0.676-1.107-0.676
		c-0.681,0-1.253,0.312-1.716,0.925c-0.462,0.613-0.691,1.289-0.691,2.016v8.666h1.153v0.624h-6.342v-0.624h1.345V41.848h-1.345
		v-0.623h2.896c0.911,0,1.675-0.15,2.292-0.447v2.66c0.499-0.789,1.075-1.417,1.721-1.875c0.759-0.52,1.574-0.785,2.443-0.785
		c0.906,0,1.648,0.197,2.219,0.592c0.668,0.478,1.084,1.206,1.249,2.183c0.379-0.665,0.865-1.236,1.446-1.715
		c0.85-0.707,1.752-1.06,2.694-1.06c1.456,0,2.447,0.494,2.975,1.471c0.324,0.602,0.488,1.444,0.488,2.525v9.45h1.346V54.848
		L150.268,54.848z"/>
	<path fill="#FFFFFF" d="M165.565,48.021c0,1.953-0.472,3.626-1.412,5.019c-1.015,1.497-2.354,2.245-4.014,2.245
		c-0.757,0-1.374-0.125-1.854-0.375c-0.757-0.395-1.311-1.122-1.661-2.182v2.12h-5.229v-0.624h1.355V35.396h-1.412v-0.624h2.962
		c0.518,0,0.95-0.036,1.301-0.109c0.35-0.073,0.691-0.182,1.023-0.327v8.791c0.167-0.666,0.549-1.221,1.15-1.668
		c0.599-0.447,1.275-0.67,2.032-0.67c1.478,0,2.787,0.665,3.931,1.995C164.956,44.197,165.565,45.942,165.565,48.021L165.565,48.021
		z M161.303,49.486v-3.397c0-1.559-0.227-2.712-0.675-3.461c-0.354-0.603-0.847-0.904-1.485-0.904c-0.612,0-1.124,0.239-1.535,0.717
		c-0.656,0.769-0.983,2.058-0.983,3.865v1.808c0,2.328,0.245,4.011,0.729,5.05c0.429,0.914,1.038,1.372,1.821,1.372
		c0.859,0,1.453-0.583,1.791-1.746C161.19,52,161.303,50.899,161.303,49.486L161.303,49.486z"/>
	<path fill="#FFFFFF" d="M178.488,47.339h-7.467v2.904c0,1.595,0.205,2.728,0.617,3.398c0.413,0.67,1.058,1.006,1.937,1.006
		c0.877,0,1.701-0.341,2.47-1.022c0.659-0.574,1.254-1.372,1.785-2.393l0.438,0.352c-0.567,1.084-1.198,1.936-1.895,2.552
		c-0.878,0.766-1.839,1.149-2.882,1.149c-1.831,0-3.404-0.724-4.722-2.17c-1.317-1.447-1.977-3.212-1.977-5.296
		c0-2,0.58-3.729,1.743-5.185c1.162-1.457,2.521-2.186,4.077-2.186c1.665,0,3.061,0.654,4.186,1.962
		C177.925,43.717,178.488,45.36,178.488,47.339L178.488,47.339z M174.673,46.732v-1.5c0-1.319-0.102-2.276-0.303-2.872
		c-0.293-0.851-0.813-1.277-1.564-1.277c-0.732,0-1.212,0.293-1.44,0.878c-0.229,0.585-0.344,1.483-0.344,2.696v2.074H174.673
		L174.673,46.732z"/>
	<path fill="#FFFFFF" d="M190.787,43.657c0,0.727-0.191,1.319-0.577,1.777c-0.383,0.457-0.887,0.686-1.509,0.686
		c-0.458,0-0.842-0.135-1.153-0.41c-0.421-0.354-0.632-0.879-0.632-1.569c0-0.437,0.009-0.712,0.028-0.832
		c0.019-0.114,0.086-0.291,0.206-0.53c0.119-0.244,0.209-0.442,0.273-0.598c0.065-0.156,0.097-0.291,0.097-0.395
		c0-0.208-0.202-0.312-0.604-0.312c-0.769,0-1.354,0.442-1.757,1.331c-0.401,0.883-0.604,1.974-0.604,3.263v8.157h1.345v0.624
		h-6.532v-0.624h1.344V41.848h-1.344v-0.623h2.905c0.507,0,0.933-0.036,1.276-0.109c0.348-0.073,0.682-0.182,1.006-0.328v1.777
		c0.678-1.184,1.73-1.777,3.157-1.777c0.988,0,1.748,0.26,2.278,0.78S190.787,42.784,190.787,43.657L190.787,43.657z"/>
	<path fill="#FFFFFF" d="M201.11,50.525c0,1.616-0.541,2.853-1.62,3.699c-0.896,0.707-2.005,1.06-3.321,1.06
		c-0.402,0-0.77-0.047-1.099-0.14c-0.329-0.094-0.632-0.213-0.906-0.358c-0.384-0.229-0.649-0.385-0.797-0.468
		c-0.237-0.146-0.457-0.218-0.658-0.218c-0.237,0-0.426,0.088-0.562,0.264c-0.137,0.178-0.206,0.411-0.206,0.702h-0.686v-5.362
		h0.686c0.183,1.372,0.687,2.515,1.51,3.43c0.823,0.914,1.803,1.372,2.938,1.372c0.915,0,1.591-0.229,2.029-0.687
		c0.349-0.353,0.522-0.79,0.522-1.309c0-0.748-0.265-1.33-0.796-1.746c-0.329-0.25-0.878-0.499-1.646-0.749L194,49.205
		c-0.604-0.208-1.116-0.561-1.537-1.06c-0.678-0.811-1.016-1.901-1.016-3.273c0-1.517,0.548-2.628,1.646-3.335
		c0.787-0.499,1.729-0.749,2.827-0.749c0.586,0,1.093,0.151,1.523,0.452c0.43,0.302,0.921,0.452,1.469,0.452
		c0.256,0,0.458-0.062,0.604-0.191c0.146-0.131,0.247-0.286,0.303-0.463h0.548v4.208h-0.521c-0.329-1.33-0.925-2.328-1.785-2.992
		c-0.676-0.521-1.399-0.78-2.168-0.78s-1.363,0.167-1.784,0.499c-0.421,0.333-0.632,0.712-0.632,1.148
		c0,0.707,0.238,1.257,0.714,1.653c0.292,0.243,0.751,0.462,1.373,0.648l2.607,0.811c0.769,0.25,1.373,0.592,1.813,1.024
		C200.733,48.026,201.11,49.117,201.11,50.525L201.11,50.525z"/>
	<polygon fill-rule="evenodd" clip-rule="evenodd" fill="#FFFFFF" points="100.446,64.251 187.432,64.251 187.432,65.895 
		100.446,65.895 100.446,64.251 	"/>
	<path fill="#FFFFFF" d="M111.594,93.227v-4.358h-3.208H101v2.507h7.386v2.121c0,2.084-0.464,3.588-1.688,4.978
		c-1.393,1.543-3.503,2.353-5.698,2.353c-2.067,0-3.841-0.656-5.19-1.929c-1.9-1.773-2.111-3.78-2.111-9.412
		s0.211-7.637,2.111-9.413c1.349-1.273,3.123-1.928,5.19-1.928c3.756,0,6.458,2.083,7.301,5.593h3.208
		c-0.845-4.744-4.854-8.216-10.51-8.216c-3.122,0-5.655,1.002-7.512,2.701c-2.827,2.584-2.996,4.976-2.996,11.264
		c0,6.288,0.169,8.68,2.996,11.264c1.857,1.698,4.39,2.7,7.512,2.7c2.783,0,5.358-0.85,7.386-2.576v2.345h3.208V93.227
		L111.594,93.227z M177.249,118.053v22.332h3.564v-27.494c-0.79,0-1.581,0-2.371,0c-0.918,2.184-3.474,3.02-6.465,3.495
		c0,0.556,0,1.112,0,1.667H177.249L177.249,118.053z M153.545,122.581c0.112-1.913,0.337-6.832,5.366-6.832
		c3.902,0,5.252,2.811,5.252,5.036c0,3.592-2.213,5.076-5.665,6.909c-7.13,3.827-8.63,6.873-8.969,12.69h18.2v-3.28h-14.447
		c0.149-1.093,1.463-3.592,5.066-5.621c6.528-3.671,9.381-5.583,9.381-10.542c0-5.192-3.715-8.316-8.331-8.316
		c-2.89,0-9.193,0.937-9.193,9.956H153.545L153.545,122.581z M141.698,126.876c0,6.949-1.726,11.127-5.553,11.127
		c-3.828,0-5.554-4.178-5.554-11.127s1.726-11.127,5.554-11.127C139.972,115.749,141.698,119.927,141.698,126.876L141.698,126.876z
		 M145.264,126.876c0-5.739-1.463-14.251-9.119-14.251c-7.655,0-9.119,8.512-9.119,14.251s1.463,14.251,9.119,14.251
		C143.8,141.127,145.264,132.615,145.264,126.876L145.264,126.876z M108.442,122.581c0.113-1.913,0.337-6.832,5.366-6.832
		c3.903,0,5.254,2.811,5.254,5.036c0,3.592-2.214,5.076-5.667,6.909c-7.129,3.827-8.63,6.873-8.968,12.69h18.2v-3.28H108.18
		c0.15-1.093,1.463-3.592,5.066-5.621c6.529-3.671,9.382-5.583,9.382-10.542c0-5.192-3.716-8.316-8.332-8.316
		c-2.889,0-9.193,0.937-9.193,9.956H108.442L108.442,122.581z M200.148,103.218v-2.392h-1.577c-2.024,0-2.673-0.926-2.673-2.777
		V75.752h-2.912v22.413c0,2.893,1.578,5.053,5.058,5.053H200.148L200.148,103.218z M186.567,103.218V90.334
		c0-4.089-2.589-6.327-7.971-6.327c-3.278,0-7.146,1.015-7.146,4.972l2.521,0.007c0-2.145,2.933-2.773,4.899-2.773
		c3.034,0,4.784,1.87,4.784,4.353v1.812h-5.949c-4.451,0-6.92,2.122-6.92,5.478c0,1.505,0.485,2.933,1.497,3.856
		c1.376,1.274,2.873,1.737,5.626,1.737c2.671,0,4.168-0.54,5.746-2.044v1.812H186.567L186.567,103.218z M183.654,96.506
		c0,1.582-0.324,2.662-1.013,3.279c-1.294,1.119-2.751,1.272-4.41,1.272c-3.197,0-4.614-1.041-4.614-3.24
		c0-2.237,1.498-3.356,4.492-3.356h5.545V96.506L183.654,96.506z M166.131,93.729c0-3.048-0.444-6.174-2.429-8.063
		c-1.051-1.002-2.792-1.659-4.856-1.659c-2.184,0-3.965,0.463-5.625,2.43V75.752h-2.913v27.466h2.913v-2.276
		c1.66,2.007,3.4,2.508,5.625,2.508c2.064,0,3.806-0.656,4.856-1.659C165.687,99.861,166.131,96.775,166.131,93.729L166.131,93.729
		L166.131,93.729z M163.216,93.729c0,3.701-0.646,7.251-4.977,7.251c-4.371,0-5.019-3.55-5.019-7.251
		c0-3.705,0.647-7.253,5.019-7.253C162.569,86.477,163.216,90.024,163.216,93.729L163.216,93.729z M144.074,93.729
		c0-2.933-0.405-5.634-2.429-7.562c-1.375-1.35-3.276-2.16-5.706-2.16c-2.427,0-4.33,0.81-5.706,2.16
		c-2.023,1.929-2.428,4.63-2.428,7.562c0,2.93,0.405,5.593,2.428,7.561c1.376,1.35,3.279,2.159,5.706,2.159
		c2.429,0,4.331-0.81,5.706-2.159C143.669,99.322,144.074,96.659,144.074,93.729L144.074,93.729z M141.161,93.729
		c0,2.12-0.122,4.436-1.578,5.862c-0.973,0.926-2.227,1.389-3.644,1.389c-1.416,0-2.63-0.463-3.602-1.389
		c-1.497-1.427-1.619-3.742-1.619-5.862c0-2.162,0.162-4.476,1.619-5.864c0.971-0.926,2.186-1.389,3.602-1.389
		c1.417,0,2.671,0.463,3.644,1.389C141.039,89.254,141.161,91.567,141.161,93.729L141.161,93.729z M124.447,103.218v-2.392h-1.579
		c-2.023,0-2.671-0.926-2.671-2.777V75.752h-2.914v22.413c0,2.893,1.579,5.053,5.059,5.053H124.447L124.447,103.218z"/>
	<path fill="#FFFFFF" d="M80.525,15.413h2.484v-5.186h3.071l3.515,5.186h2.929l-3.818-5.632c1.98-0.595,3.375-2.062,3.375-4.506
		c0-2.869-1.94-4.739-5.253-4.739h-6.303V15.413L80.525,15.413z M83.009,7.91V2.916h3.616c1.839,0,2.93,0.871,2.93,2.465
		c0,1.552-1.132,2.529-2.909,2.529H83.009L83.009,7.91z"/>
	<path fill="#FFFFFF" d="M95.042,15.413h2.491l1.424-3.592h6.544l1.404,3.592h2.57l-6.09-14.984h-2.254L95.042,15.413L95.042,15.413
		z M99.846,9.504l2.372-5.951l2.393,5.951H99.846L99.846,9.504z"/>
	<polygon fill="#FFFFFF" points="113.532,15.413 115.962,15.413 115.962,4.829 123.716,15.413 125.785,15.413 125.785,0.536 
		123.355,0.536 123.355,10.822 115.822,0.536 113.532,0.536 113.532,15.413 	"/>
	<polygon fill="#FFFFFF" points="130.748,15.413 133.362,15.413 133.362,11.099 135.679,8.718 140.759,15.413 143.926,15.413 
		137.464,6.933 143.649,0.536 140.44,0.536 133.362,8.017 133.362,0.536 130.748,0.536 130.748,15.413 	"/>
	<polygon fill="#FFFFFF" points="147.305,15.413 157.719,15.413 157.719,13.076 149.751,13.076 149.751,9.08 156.727,9.08 
		156.727,6.742 149.751,6.742 149.751,2.874 157.621,2.874 157.621,0.536 147.305,0.536 147.305,15.413 	"/>
	<path fill="#FFFFFF" d="M161.706,15.413h5.063c4.269,0,7.219-3.252,7.219-7.439c0-4.23-2.95-7.438-7.219-7.438h-5.063V15.413
		L161.706,15.413z M164.092,13.033V2.916h2.678c2.852,0,4.715,2.146,4.715,5.059c0,2.954-1.863,5.059-4.715,5.059H164.092
		L164.092,13.033z"/>
	<polygon fill="#FFFFFF" points="184.818,15.413 187.434,15.413 187.434,0.536 184.818,0.536 184.818,15.413 	"/>
	<polygon fill="#FFFFFF" points="192.561,15.413 194.987,15.413 194.987,4.829 202.732,15.413 204.797,15.413 204.797,0.536 
		202.369,0.536 202.369,10.822 194.847,0.536 192.561,0.536 192.561,15.413 	"/>
	<path fill-rule="evenodd" clip-rule="evenodd" fill="#FFFFFF" d="M45.625,159.127c11.382,8.907,31.519,3.398,36.551-13.021
		C71.149,137.877,52.252,141.999,45.625,159.127L45.625,159.127z"/>
	<path fill-rule="evenodd" clip-rule="evenodd" fill="#FFFFFF" d="M18.752,132.296c7.115,12.581,27.83,15.184,38.753,1.931
		C50.457,122.409,31.42,118.999,18.752,132.296L18.752,132.296z"/>
	<path fill-rule="evenodd" clip-rule="evenodd" fill="#FFFFFF" d="M3.961,96.815c1.7,14.353,19.798,24.759,34.995,16.761
		C37.024,99.952,20.784,89.448,3.961,96.815L3.961,96.815z"/>
	<path fill-rule="evenodd" clip-rule="evenodd" fill="#FFFFFF" d="M2.45,59.209c-3.341,14.061,10.073,30.06,27.093,27.775
		C32.417,73.528,20.781,58.079,2.45,59.209L2.45,59.209z"/>
	<path fill-rule="evenodd" clip-rule="evenodd" fill="#FFFFFF" d="M16.357,26.859c-7.666,10.798-1.763,28.993,13.48,32.896
		C36.898,49.309,32.317,32.191,16.357,26.859L16.357,26.859z"/>
	<path fill-rule="evenodd" clip-rule="evenodd" fill="#FFFFFF" d="M40.153,5.161c-9.884,6.306-11.1,23.198,0.105,31.476
		C49.528,30.418,51.47,14.849,40.153,5.161L40.153,5.161z"/>
	<path fill-rule="evenodd" clip-rule="evenodd" fill="#FFFFFF" d="M242.075,159.127c-11.382,8.907-31.519,3.398-36.55-13.021
		C216.555,137.877,235.45,141.999,242.075,159.127L242.075,159.127z"/>
	<path fill-rule="evenodd" clip-rule="evenodd" fill="#FFFFFF" d="M268.949,132.296c-7.115,12.581-27.829,15.184-38.752,1.931
		C237.244,122.409,256.283,118.999,268.949,132.296L268.949,132.296z"/>
	<path fill-rule="evenodd" clip-rule="evenodd" fill="#FFFFFF" d="M283.74,96.815c-1.699,14.353-19.797,24.759-34.994,16.761
		C250.678,99.952,266.918,89.448,283.74,96.815L283.74,96.815z"/>
	<path fill-rule="evenodd" clip-rule="evenodd" fill="#FFFFFF" d="M285.251,59.209c3.341,14.061-10.071,30.06-27.092,27.775
		C255.285,73.528,266.92,58.079,285.251,59.209L285.251,59.209z"/>
	<path fill-rule="evenodd" clip-rule="evenodd" fill="#FFFFFF" d="M271.344,26.859c7.666,10.798,1.763,28.993-13.479,32.896
		C250.804,49.309,255.386,32.191,271.344,26.859L271.344,26.859z"/>
	<path fill-rule="evenodd" clip-rule="evenodd" fill="#FFFFFF" d="M247.549,5.161c9.884,6.306,11.1,23.198-0.104,31.476
		C238.175,30.418,236.231,14.849,247.549,5.161L247.549,5.161z"/>
	<path fill-rule="evenodd" clip-rule="evenodd" fill="#FFFFFF" d="M144.107,159.949c2.688,0,4.866,2.179,4.866,4.866
		c0,2.687-2.179,4.865-4.866,4.865s-4.866-2.179-4.866-4.865C139.241,162.128,141.42,159.949,144.107,159.949L144.107,159.949z"/>
</g>
</svg>
