<?xml version="1.0" encoding="utf-8"?><svg xmlns="http://www.w3.org/2000/svg" width="41" height="46" viewBox="0 -2.47 41 46"><path fill="#FFF" d="M8.9 17.83h-.62c-.5 0-.76-.1-.76-.6l-.03-1.95-.02-1.81v-1.15l.03-1.95.02-1.68c0-.3.2-.48.58-.48h.7c.06 0 .06-.02.06-.04v-.38c0-.03 0-.04-.04-.04h-.26a52.72 52.72 0 0 1-4.1 0c-.03 0-.03.02-.03.03v.4c0 .01 0 .03.06.03h.86c.56 0 .77.15.8.56.02.24.07 2.94.07 3.28v1.05c0 .75-.05 4.01-.08 4.25-.06.42-.4.48-.73.48h-.84c-.05 0-.05.02-.05.03v.4c0 .01 0 .03.05.03h.23a34.84 34.84 0 0 1 3.84 0h.24c.07 0 .07-.02.07-.03v-.39c0-.02 0-.04-.06-.04zm.93-9.61h.87c.58 0 .67.3.67.49v.73c.02.7.03 1.78.03 2.21v1.05c0 2.6-.03 4.46-.06 4.75-.02.33-.2.38-.58.38h-.67l-.05.01v.41c0 .05 0 .05.03.05l.3-.01a35.62 35.62 0 0 1 3.49 0h.2c.06 0 .06 0 .06-.05v-.38s0-.03-.08-.03h-.73c-.53 0-.64-.09-.64-.53a434.06 434.06 0 0 0-.02-3.18v-.62h.06c.88 0 1.58.03 2.04.1.35.04.55.23.67.62a10.15 10.15 0 0 1 .18.8h.01l.29-.07c.05 0 .06-.02.06-.06a29.86 29.86 0 0 1-.04-3.26c0-.04-.03-.04-.04-.04l-.3-.01s-.03 0-.04.06c-.02.12-.1.54-.15.73-.15.5-.37.64-.7.7-.2.03-1.75.07-1.98.07h-.06v-.8a997.37 997.37 0 0 1 .02-4.11v-.06h.06c.36 0 2.81.04 3.21.14.43.1.8.35 1.08.72a17.94 17.94 0 0 1 1.01 1.46l.26-.1v-.04c-.1-.38-.5-2.2-.59-2.6a90.93 90.93 0 0 1-5.56.05h-.13c-.58 0-1.1-.01-1.57-.03l-.49-.01h-.12c-.04 0-.04.01-.04.02v.4c0 .02 0 .04.04.04zM18.3 18.3h.06l1.91-.04a320.91 320.91 0 0 1 6.24.04c.11-.48.68-2.82.73-2.93v-.05l-.01-.01-.23-.09h-.02l-.02.03c-.23.63-1.13 2.4-2.04 2.55-.23.03-1.06.03-1.54.03-.94 0-2.02-.02-2.22-.03h-.05v-.06c-.05-.58-.05-3.51-.05-4.1v-1.28c0-.73.02-2.06.04-2.85v-.65c0-.43.06-.64.59-.64h.9c.08 0 .08-.02.08-.06v-.34c0-.05 0-.06-.07-.06h-.18c-.3.02-.92.04-2.03.04-.91 0-1.44-.02-1.73-.03h-.25v.36c0 .1.02.1.04.1h.7c.49 0 .58.18.61.59.02.28.05 1.86.05 2.8v.84l-.03 3.58-.02 1.34c0 .31-.23.46-.7.46h-.72a2 2 0 0 0-.04.42v.04zm19.2-.47c-.4 0-.77-.02-1.11-.26-.3-.22-1.27-1.6-1.34-1.74a38.9 38.9 0 0 0-1.35-1.9c-.15-.2-.34-.43-.66-.55l-.04-.01v-.12l.05-.01c2-.44 2.71-1.21 2.71-2.93 0-.56-.3-1.22-.75-1.66-.6-.57-1.6-.9-2.76-.9-.1 0-.34 0-.65.02l-1.84.03a29.98 29.98 0 0 1-1.88-.04v.41c0 .05 0 .05.03.05h.6c.4 0 .6.27.62.8.02.43.02 1.39.02 2.5v1.44c0 1.4 0 2.83-.03 4.3 0 .39-.21.57-.64.57h-.63v.47h.23c.24-.01.68-.04 1.7-.04 1.05 0 1.54.03 1.77.04h.18c.1 0 .1 0 .1-.07v-.33c0-.05 0-.06-.05-.06h-.95c-.23 0-.4-.23-.43-.63l-.03-2.79v-.88l.05-.01c.21-.05.37-.05.5-.05.92 0 1.3.45 1.66.89.19.21.9 1.3.97 1.4l.32.55.67 1.16.1.14c.14.2.37.55.5.68.27-.01.78-.04 1.2-.04.45 0 .78.02.98.04h.18c.05 0 .06 0 .06-.07v-.33c0-.04 0-.06-.06-.06zm-6.4-4.71a3.1 3.1 0 0 1-.68-.07h-.05V8.76c0-.24.08-.44.2-.53.17-.1.39-.13.55-.13 1.18 0 1.88.2 2.52.7.46.39.77 1.07.77 1.75 0 .71-.6 2.56-3.3 2.56zM5.3 23.24l-.63 1.18h1.81v9.2h1.18V23.25H6.48zm26.89-.01a5.2 5.2 0 0 0-4.49 2.58 5.2 5.2 0 0 0-8.98 0 5.2 5.2 0 1 0 0 5.23 5.2 5.2 0 0 0 8.98 0 5.2 5.2 0 1 0 4.49-7.81zm-17.95 9.54a4.35 4.35 0 1 1 0-8.7 4.35 4.35 0 0 1 0 8.7zm8.97 0a4.35 4.35 0 0 1-4.03-2.73 5.17 5.17 0 0 0 0-3.22 4.35 4.35 0 1 1 4.03 5.95zm8.98 0a4.35 4.35 0 0 1-4.03-2.73 5.19 5.19 0 0 0 0-3.22 4.35 4.35 0 1 1 4.03 5.95z"/><path fill="#FFF" d="M33.73 0H7.27A7.28 7.28 0 0 0 0 7.27v26.46A7.28 7.28 0 0 0 7.27 41h26.46A7.28 7.28 0 0 0 41 33.73V7.27A7.28 7.28 0 0 0 33.73 0zm0 39.94H7.27a6.21 6.21 0 0 1-6.21-6.2V7.26a6.2 6.2 0 0 1 6.2-6.2h26.47a6.2 6.2 0 0 1 6.21 6.2v26.46a6.2 6.2 0 0 1-6.2 6.21z"/></svg>