<?xml version="1.0" encoding="UTF-8" standalone="no"?>
<svg
   xmlns:dc="http://purl.org/dc/elements/1.1/"
   xmlns:cc="http://creativecommons.org/ns#"
   xmlns:rdf="http://www.w3.org/1999/02/22-rdf-syntax-ns#"
   xmlns:svg="http://www.w3.org/2000/svg"
   xmlns="http://www.w3.org/2000/svg"
   xmlns:sodipodi="http://sodipodi.sourceforge.net/DTD/sodipodi-0.dtd"
   xmlns:inkscape="http://www.inkscape.org/namespaces/inkscape"
   inkscape:version="1.0 (4035a4fb49, 2020-05-01)"
   sodipodi:docname="5a14589374b0294675449514dc3f0466_new.svg"
   xml:space="preserve"
   enable-background="new 0 0 286.3 170.08"
   viewBox="0 0 286.3 170.08"
   height="170.08px"
   width="286.3px"
   y="0px"
   x="0px"
   id="Layer_1"
   version="1.1"><metadata
   id="metadata40"><rdf:RDF><cc:Work
       rdf:about=""><dc:format>image/svg+xml</dc:format><dc:type
         rdf:resource="http://purl.org/dc/dcmitype/StillImage" /><dc:title></dc:title></cc:Work></rdf:RDF></metadata><defs
   id="defs38" /><sodipodi:namedview
   inkscape:current-layer="Layer_1"
   inkscape:window-maximized="1"
   inkscape:window-y="-8"
   inkscape:window-x="-8"
   inkscape:cy="85.040001"
   inkscape:cx="136.42295"
   inkscape:zoom="3.9393226"
   showgrid="false"
   id="namedview36"
   inkscape:window-height="837"
   inkscape:window-width="1600"
   inkscape:pageshadow="2"
   inkscape:pageopacity="0"
   guidetolerance="10"
   gridtolerance="10"
   objecttolerance="10"
   borderopacity="1"
   bordercolor="#666666"
   pagecolor="#ffffff" />
<path
   style="stroke-width:0.9"
   id="path2"
   d="m 260.81724,72.086209 c -0.1476,2.6532 0.216,6.0129 0.1728,8.7993 -0.0243,1.4661 0.2457,2.8692 -1.5534,2.9331 -2.1258,-3.7341 -3.249,-8.6742 -7.5924,-10.3527 -5.5764,-2.1546 -10.4067,1.8747 -9.1449,7.2468 0.7038,2.9997 4.5684,4.8609 7.5924,6.2118 3.3165,1.4814 6.5952,2.5011 9.1449,4.6584 5.2308,4.4244 4.6449,14.046301 0.1719,18.634501 -5.958,6.1092 -19.7991,5.9454 -28.6416,2.2428 -0.0414,-1.458 0.054,-3.0402 0,-4.4856 -0.0981,-2.6109 -1.0908,-8.926201 1.2078,-8.627401 1.0539,0.1359 2.1564,4.249801 2.5884,5.004001 2.2572,3.9564 7.4484,8.7606 13.2858,6.039 2.0601,-0.9612 4.626,-4.3497 3.2787,-8.109 -1.0269,-2.860201 -4.842,-4.397401 -8.2818,-5.694301 -4.4964,-1.6947 -8.5455,-3.5874 -10.3527,-7.2468 -4.6116,-9.3402 3.1383,-18.6156 12.7683,-19.4976 6.0255,-0.5517 10.5444,0.5094 15.3558,2.2437 z"
   fill="#ffffff" />
<path
   style="stroke-width:0.9"
   id="path4"
   d="m 84.998643,70.015309 c -4.3407,0.4401 -7.659,1.7964 -10.1799,3.6234 -4.4622,3.2319 -7.902,8.6256 -8.4546,16.2189 -1.0215,14.029201 6.0093,24.299101 18.4617,25.190101 13.5027,0.9675 22.901397,-7.7688 23.638497,-21.050101 0.837,-15.1119 -7.8399,-25.5645 -23.465697,-23.9823 z m 3.7962,42.100201 c -8.1459,1.3059 -9.4905,-11.7108 -9.4905,-19.324801 0,-4.5864 0.378,-9.3861 1.0359,-12.2508 0.8442,-3.6837 2.0601,-7.3125 6.0381,-7.7643 7.1343,-0.8109 8.9829,10.4742 9.1458,18.6354 0.1584,8.0262 -0.4554,19.699201 -6.7293,20.704501 z"
   fill="#ffffff" />
<path
   style="stroke-width:0.9"
   id="path6"
   d="m 144.18084,70.878409 c -1.2852,4.0635 -2.871,7.8264 -4.3128,11.7324 -2.8116,-2.3139 -10.3788,-3.1329 -12.9411,0 -0.2277,3.5406 -0.1719,8.7345 -0.1719,13.9761 0,7.757101 -0.8622,16.273801 7.5924,15.011101 0,0.747 0,1.4958 0,2.2428 -8.4546,-0.1152 -17.37,0.2295 -25.5366,-0.1719 -0.3411,-0.4482 -0.1224,-1.6803 0,-1.7253 0.5625,-0.6111 2.3562,-0.5697 3.2787,-1.035 3.1014,-1.566 2.4255,-7.9146 2.7603,-12.941101 0.2016,-3.0519 0.0846,-6.948 0,-10.5237 -0.1206,-4.9806 0.1737,-10.1664 -2.5875,-11.5605 -1.1322,-0.5715 -2.8368,-0.1692 -3.4506,-0.8631 -0.3051,-0.288 0.1512,-0.5778 0,-1.2078 5.6511,-1.827 12.2697,-2.6847 18.4626,-3.969 -0.2808,3.0564 -0.2295,6.4431 -0.3447,9.6624 2.3625,-5.5773 8.9667,-12.7017 17.2512,-8.6274 z"
   fill="#ffffff" />
<path
   style="stroke-width:0.9"
   id="path8"
   d="m 23.747343,53.796409 c 16.1037,0 32.2065,0 48.3111,0 0.2439,5.5071 0.126,11.3751 0.3456,16.9092 -1.0845,0.0675 -1.6083,0.6921 -2.7603,0.6903 -2.3121,-5.8635 -4.6431,-12.4731 -11.9052,-13.2858 -3.4317,-0.3843 -7.497,0.2844 -11.7333,0 -0.594,7.6878 -0.4644,16.1001 -0.6903,24.1551 8.0109,0.9909 13.122,-1.3941 13.6314,-8.4546 0.8037,0 1.6101,0 2.4156,0 0,6.786 0,13.5747 0,20.3607 -0.8055,0 -1.6119,0 -2.4156,0 -0.9288,-3.348 -1.4463,-6.7086 -4.4865,-7.9371 -2.3535,-0.9513 -5.5971,-0.2385 -8.9721,-0.6903 0.5643,6.8598 -1.2798,20.569501 2.7612,24.327901 1.6083,1.4958 4.05,0.9909 6.5565,1.8981 0,0.6903 0,1.3797 0,2.07 -10.3518,-0.1152 -21.1653,0.2295 -31.2291,-0.1719 -0.9513,-3.1554 2.4876,-2.0169 4.6584,-2.9331 3.708,-1.5651 3.8475,-8.2116 3.969,-14.320801 0.1728,-8.8029 0.3636,-18.5913 0,-27.2619 -0.3051,-7.2432 -0.8622,-13.3182 -8.4546,-12.7683 -0.2484,-0.5067 -0.3177,-2.0916 -0.0018,-2.5875 z"
   fill="#ffffff" />
<g
   transform="matrix(0.9,0,0,0.9,14.338743,8.380609)"
   id="g28">
	<path
   id="path10"
   d="m 211.575,104.268 c -1.648,-2.927 -2.543,-6.345 -2.809,-10.738 -0.112,-1.845 -0.088,-2.304 0.128,-2.441 0.148,-0.094 6.541,-0.17 14.311,-0.172 l 14.043,-0.003 v -0.555 c 0,-1.261 -0.414,-4.651 -0.785,-6.427 -1.491,-7.146 -5.429,-12.24 -11.045,-14.29 -2.235,-0.816 -4.35,-1.159 -7.137,-1.159 -6.603,0 -11.995,2.166 -16.167,6.493 -3.326,3.45 -5.3,7.326 -6.504,12.774 -0.362,1.642 -0.423,2.495 -0.423,5.942 0,3.423 0.062,4.306 0.414,5.889 2.234,10.055 8.85,16.677 18.354,18.373 2.409,0.43 5.958,0.463 8.335,0.077 4.441,-0.721 8.816,-2.852 11.96,-5.829 1.722,-1.631 2.293,-2.418 2.054,-2.83 -0.64,-1.101 -0.611,-1.1 -2.244,-0.097 -2.597,1.596 -3.899,2.036 -6.951,2.35 -1.183,0.12 -2.334,0.135 -3.456,0.044 -2.188,-0.141 -4.146,-0.681 -5.86,-1.553 -0.193,-0.091 -0.387,-0.186 -0.577,-0.284 -2.018,-1.036 -4.434,-3.421 -5.641,-5.564 z m -2.201,-21.982 c 0.655,-3.27 1.614,-5.839 2.874,-7.715 0.489,-0.77 1.045,-1.432 1.67,-1.95 0.724,-0.683 1.161,-0.941 1.854,-1.147 0.567,-0.168 1.211,-0.306 1.429,-0.305 0.88,0.002 1.918,0.451 2.69,1.163 0.014,0.013 0.028,0.028 0.042,0.041 1.212,1.004 1.924,2.525 2.364,4.342 0.604,2.041 0.97,4.619 1.089,7.708 l 0.116,2.999 -1.994,0.111 c -4.002,0.223 -12.598,0.336 -12.702,0.166 -0.144,-0.232 0.215,-3.645 0.568,-5.413 z"
   fill="#FFFFFF" />
	<path
   id="path12"
   d="m 163.685,70.325 c -0.559,0.209 -1.085,0.445 -1.576,0.704 0.297,-0.126 0.746,-0.326 1.232,-0.551 0.115,-0.052 0.229,-0.103 0.344,-0.153 z"
   fill="#FFFFFF" />
	<path
   id="path14"
   d="M 64.342,50.941 64.218,50.174 37.767,50.12 C 23.219,50.09 11.033,50.116 10.685,50.178 l -0.63,0.112 0.056,1.571 0.056,1.572 2.013,0.241 c 2.614,0.313 4.174,1.046 5.1,2.397 2.087,3.044 2.466,7.188 2.462,26.886 -0.004,20.974 -0.44,26.068 -2.458,28.713 -1.041,1.365 -1.884,1.812 -4.241,2.249 -3.073,0.57 -2.971,0.499 -2.971,2.087 0,0.885 0.08,1.363 0.239,1.427 0.346,0.14 34.178,0.15 34.541,0.011 0.463,-0.178 0.435,-2.677 -0.032,-2.919 -0.185,-0.095 -1.328,-0.321 -2.541,-0.503 -1.213,-0.182 -2.551,-0.48 -2.974,-0.665 -2.215,-0.965 -3.448,-3.633 -3.911,-8.458 -0.333,-3.463 -0.592,-9.842 -0.592,-14.558 v -4.328 l 2.061,0.063 c 4.389,0.133 6.658,0.364 7.575,0.771 1.985,0.878 3.592,3.327 4.427,6.749 l 0.444,1.821 1.565,0.056 1.565,0.057 V 84.011 72.493 l -1.565,0.056 -1.564,0.056 -0.458,1.821 c -0.886,3.525 -2.332,5.69 -4.457,6.674 -0.865,0.4 -1.479,0.51 -3.546,0.634 -1.375,0.082 -3.299,0.154 -4.274,0.16 L 34.802,81.904 34.8,76.2 c -0.002,-5.718 0.306,-17.859 0.501,-19.746 l 0.104,-1.006 h 6.033 c 6.933,0 8.067,0.146 10.522,1.35 3.559,1.747 6.16,5.205 8.429,11.207 0.924,2.444 0.911,2.436 2.964,1.812 l 1.364,-0.415 -0.125,-8.847 c -0.071,-4.866 -0.182,-9.192 -0.25,-9.614 z m -1.386,18.495 c -0.746,0.227 -1.376,0.385 -1.399,0.353 -0.024,-0.033 -0.281,-0.75 -0.571,-1.593 -0.29,-0.844 -0.947,-2.419 -1.459,-3.501 -2.281,-4.815 -5.011,-7.59 -8.805,-8.949 L 49.084,55.16 42.044,55.1 35.005,55.042 34.91,55.484 c -0.252,1.173 -0.76,26.414 -0.538,26.748 0.121,0.181 1.078,0.19 4.27,0.042 2.263,-0.104 4.503,-0.28 4.978,-0.39 1.931,-0.445 3.449,-1.815 4.528,-4.085 0.688,-1.449 1.415,-3.748 1.415,-4.475 0,-0.404 0.081,-0.432 1.246,-0.432 h 1.246 V 84.02 95.148 l -1.17,-0.058 -1.17,-0.058 -0.446,-1.766 C 48.258,89.261 46.24,86.685 43.621,86.057 42.674,85.83 34.568,85.508 34.387,85.69 c -0.201,0.2 0.108,13.164 0.418,17.575 0.437,6.208 1.562,9.121 3.997,10.347 0.685,0.345 4.941,1.263 5.854,1.263 0.063,0 0.115,0.475 0.115,1.055 v 1.054 H 27.611 10.453 v -1.038 -1.039 l 0.963,-0.205 c 0.529,-0.114 1.555,-0.305 2.279,-0.424 2.63,-0.436 4.223,-1.87 5.079,-4.578 1.04,-3.293 1.246,-6.687 1.395,-23.006 C 20.309,71.251 20.004,63 19.159,59.342 18.615,56.987 17.751,55.492 16.346,54.474 15.42,53.802 14.575,53.552 12.274,53.264 L 10.548,53.048 10.491,51.851 10.434,50.654 H 37.166 63.9 l 0.11,2.924 c 0.061,1.608 0.153,5.741 0.206,9.185 l 0.096,6.262 z"
   fill="#FFFFFF" />
	<path
   id="path16"
   d="m 139.177,67.908 c -2.228,0 -3.431,0.247 -5.233,1.073 -3.285,1.505 -5.755,3.971 -7.958,7.943 l -0.688,1.241 0.089,-2.205 c 0.048,-1.212 0.13,-3.478 0.181,-5.033 l 0.093,-2.828 h -0.473 c -0.606,0 -19.599,3.796 -20.173,4.032 -0.374,0.153 -0.431,0.318 -0.431,1.232 0,0.94 0.047,1.065 0.431,1.145 0.237,0.049 1.11,0.22 1.939,0.379 1.68,0.323 2.179,0.583 2.87,1.5 1.278,1.691 1.541,4.674 1.527,17.306 -0.011,10.328 -0.227,15.472 -0.716,17.079 -0.601,1.974 -1.667,2.981 -3.523,3.328 -0.6,0.111 -1.394,0.268 -1.762,0.347 l -0.671,0.143 -0.057,1.324 c -0.041,0.931 0.017,1.372 0.191,1.484 0.137,0.087 6.634,0.138 14.436,0.112 l 14.187,-0.046 0.056,-1.485 c 0.031,-0.817 -0.012,-1.486 -0.096,-1.486 -1.102,0 -4.479,-0.464 -5.012,-0.687 -1.6,-0.668 -2.375,-2.104 -2.708,-5.019 -0.393,-3.422 -0.625,-11.931 -0.517,-18.906 0.109,-7.043 0.111,-7.072 0.551,-7.544 1.028,-1.103 3.632,-1.961 5.963,-1.966 1.872,-0.004 3.8,0.479 5.855,1.465 0.986,0.473 1.895,0.821 2.02,0.772 0.257,-0.098 4.911,-12.397 4.911,-12.977 0,-0.861 -2.641,-1.723 -5.282,-1.723 z m 4.844,1.897 c -0.137,0.493 -4.557,12.173 -4.637,12.252 -0.04,0.04 -0.704,-0.238 -1.477,-0.617 -2.691,-1.32 -6.132,-1.805 -8.824,-1.243 -1.325,0.276 -3.199,1.167 -3.799,1.805 l -0.475,0.506 v 10.96 c 0,14.042 0.284,17.508 1.587,19.387 0.9,1.296 1.838,1.64 5.266,1.929 l 1.485,0.126 v 1.038 1.038 h -14.1 -14.101 l 0.058,-1.007 0.058,-1.006 1.703,-0.333 c 0.936,-0.183 1.972,-0.487 2.301,-0.678 0.887,-0.514 1.769,-1.958 2.11,-3.459 0.667,-2.935 0.898,-24.429 0.321,-29.943 -0.442,-4.229 -1.49,-5.675 -4.457,-6.152 -2.159,-0.348 -2.074,-0.306 -2.074,-1.029 0,-0.361 0.077,-0.704 0.171,-0.762 0.227,-0.14 1.547,-0.417 11.044,-2.323 4.429,-0.889 8.26,-1.665 8.514,-1.725 l 0.462,-0.109 -0.131,5.283 c -0.104,4.222 -0.082,5.283 0.113,5.282 0.134,-0.001 0.658,-0.757 1.163,-1.682 3.043,-5.567 7.27,-8.729 12.03,-9.006 1.78,-0.103 3.16,0.115 4.751,0.752 0.745,0.298 1,0.493 0.938,0.716 z"
   fill="#FFFFFF" />
	<path
   id="path18"
   d="m 223.254,87.271 c -0.249,-3.672 -0.223,-7.527 -0.956,-10.557 -0.575,-1.945 -1.365,-3.402 -2.364,-4.342 -0.104,-0.086 -0.211,-0.168 -0.322,-0.247 -1.655,-1.164 -4,-0.841 -5.561,0.383 -0.045,0.035 -0.088,0.075 -0.133,0.112 -0.137,0.129 -0.283,0.272 -0.443,0.434 -0.438,0.44 -0.846,0.948 -1.228,1.517 -2.155,3.386 -3.05,8.828 -3.181,13.083 4.707,-0.149 9.586,-0.126 14.188,-0.383 z m -13.722,-3.164 c 1.198,-7.72 4.078,-12.354 7.682,-12.358 3.316,-0.004 5.36,4.562 5.784,12.916 l 0.121,2.37 -3.336,0.116 c -1.835,0.063 -4.954,0.143 -6.931,0.174 l -3.595,0.059 0.004,-0.775 c 0.003,-0.427 0.124,-1.553 0.271,-2.502 z"
   fill="#FFFFFF" />
	<path
   id="path20"
   d="m 227.145,69.849 c -5.265,-2.638 -13.399,-2.448 -19.349,0.452 -5.637,2.748 -9.518,7.333 -11.682,13.804 -1.129,3.37 -1.483,6.081 -1.37,10.451 0.071,2.762 0.198,4.189 0.484,5.465 2.222,9.92 9.023,16.664 18.534,18.38 2.095,0.377 6.849,0.386 8.965,0.016 3.021,-0.528 6.506,-1.872 8.703,-3.356 2.683,-1.812 5.434,-4.537 5.434,-5.382 0,-0.515 -0.922,-1.702 -1.322,-1.702 -0.175,0 -0.92,0.389 -1.655,0.864 -2.624,1.696 -5.133,2.392 -8.621,2.392 -4.812,0 -7.861,-1.198 -10.928,-4.294 -1.356,-1.37 -1.916,-2.109 -2.617,-3.467 -1.545,-2.986 -2.38,-6.421 -2.505,-10.304 l -0.054,-1.676 14.187,-0.05 14.187,-0.049 0.063,-0.958 c 0.035,-0.527 -0.034,-1.907 -0.153,-3.067 -0.885,-8.616 -4.374,-14.548 -10.301,-17.519 z m -18.079,21.256 c -0.47,8.495 2.578,15.884 8.726,19.011 1.859,0.872 3.811,1.389 5.86,1.553 1.708,0.11 3.558,-0.023 5.544,-0.435 2.597,-0.536 5.876,-3.512 6.902,-2.684 2.158,1.746 -4.314,5.972 -5.561,6.71 -4.016,2.378 -7.988,3.623 -13.995,3.259 -14.629,-0.888 -22.439,-12.821 -21.663,-26.839 0.673,-12.168 8.282,-22.375 20.705,-23.389 15.588,-1.274 21.183,8.35 21.855,22.814 -9.458,0 -18.916,0 -28.373,0 z"
   fill="#FFFFFF" />
	<path
   id="path22"
   d="m 275.46,96.073 c -1.612,-3.224 -4.579,-5.43 -10.798,-8.028 -5.076,-2.121 -7.624,-3.59 -9.18,-5.292 -1.262,-1.381 -1.631,-2.498 -1.509,-4.563 0.113,-1.906 0.58,-3.042 1.775,-4.32 1.532,-1.639 3.642,-2.212 6.167,-1.678 4.142,0.876 6.801,3.745 9.089,9.808 0.816,2.163 0.912,2.231 2.38,1.686 l 0.928,-0.344 -0.032,-2.492 c -0.019,-1.371 -0.089,-4.249 -0.156,-6.396 l -0.123,-3.904 -0.691,-0.293 c -3.788,-1.604 -11.018,-2.603 -15.729,-2.173 -5.35,0.488 -9.276,2.186 -12.301,5.319 -3.006,3.114 -4.362,6.767 -4.122,11.101 0.199,3.587 1.26,6.162 3.471,8.423 2.049,2.098 3.77,3.09 8.702,5.017 7.962,3.109 10.069,4.951 10.052,8.786 -0.015,3.237 -1.731,5.607 -4.861,6.712 -1.117,0.395 -3.947,0.392 -5.456,-0.007 -3.957,-1.042 -6.986,-4.47 -9.569,-10.827 l -0.662,-1.629 -0.777,0.035 c -0.427,0.02 -1.015,0.15 -1.307,0.29 l -0.529,0.254 0.049,2.778 c 0.027,1.527 0.104,4.748 0.17,7.156 l 0.121,4.38 0.884,0.38 c 1.81,0.778 7.245,1.968 10.661,2.334 0.422,0.046 2.751,0.061 5.176,0.034 4.209,-0.046 4.511,-0.074 6.627,-0.627 6.248,-1.632 10.293,-5.113 12.084,-10.4 0.55,-1.622 0.627,-2.118 0.706,-4.534 0.105,-3.219 -0.192,-4.892 -1.24,-6.986 z m 0.535,9.698 c -1.379,6.673 -6.637,11.041 -14.783,12.278 -2.247,0.341 -6.806,0.329 -9.777,-0.026 -3.828,-0.457 -9.346,-1.767 -10.198,-2.42 -0.285,-0.219 -0.337,-1.006 -0.457,-6.999 l -0.135,-6.752 0.541,-0.206 c 1.179,-0.448 1.231,-0.408 2.007,1.479 2.973,7.241 6.624,10.671 11.812,11.096 3.816,0.312 6.731,-1.215 8.188,-4.29 0.558,-1.177 0.608,-1.445 0.608,-3.202 0,-1.822 -0.033,-1.977 -0.664,-3.142 -0.444,-0.82 -1.04,-1.539 -1.797,-2.169 -1.29,-1.073 -4.692,-2.772 -7.987,-3.989 -4.188,-1.546 -6.646,-2.99 -8.537,-5.014 -2.198,-2.353 -3.191,-5.044 -3.208,-8.691 -0.012,-2.569 0.352,-4.211 1.403,-6.343 1.979,-4.01 5.769,-6.894 10.878,-8.279 1.76,-0.478 2.107,-0.505 6.366,-0.51 3.568,-0.004 4.903,0.068 6.422,0.348 2.018,0.371 5.082,1.205 6.256,1.701 l 0.695,0.295 0.143,5.972 c 0.078,3.284 0.083,6.03 0.011,6.103 -0.072,0.073 -0.478,0.233 -0.898,0.358 -0.669,0.198 -0.78,0.186 -0.877,-0.092 -0.621,-1.796 -1.896,-4.706 -2.517,-5.742 -1.949,-3.257 -4.107,-5.019 -6.978,-5.695 -2.376,-0.56 -4.416,-0.298 -6.044,0.776 -1.943,1.283 -2.962,3.342 -2.982,6.028 -0.014,1.782 0.317,2.809 1.336,4.145 1.233,1.617 4.244,3.417 9.268,5.542 6.765,2.859 9.495,4.885 11.11,8.239 1.151,2.395 1.461,5.979 0.795,9.201 z"
   fill="#FFFFFF" />
	<path
   id="path24"
   d="m 175.746,68.932 c -1.13,-0.233 -2.149,-0.282 -4.351,-0.205 -3.153,0.11 -5.371,0.566 -7.711,1.598 3.04,-1.142 6.969,-1.543 10.63,-1.144 -3.488,-0.381 -7.586,0.276 -10.798,1.781 -0.915,0.429 -1.791,0.78 -1.947,0.78 -0.247,0 -0.273,-1.42 -0.211,-11.183 l 0.072,-11.182 -0.77,0.154 c -0.423,0.084 -4.737,0.888 -9.588,1.786 -4.85,0.898 -9.007,1.677 -9.239,1.731 -0.352,0.083 -0.414,0.216 -0.376,0.817 0.042,0.669 0.097,0.729 0.804,0.885 2.431,0.534 2.863,0.725 3.767,1.658 1.106,1.144 1.606,2.604 1.935,5.651 0.262,2.428 0.319,44.264 0.07,50.438 l -0.148,3.662 1.977,0.423 c 7.486,1.601 14.948,2.154 19.615,1.454 5.823,-0.874 10.095,-2.873 13.713,-6.421 5.229,-5.126 7.748,-12.361 7.407,-21.279 -0.176,-4.592 -0.925,-7.59 -2.827,-11.311 -2.579,-5.041 -6.987,-8.576 -11.994,-9.617 -0.467,-0.097 -0.95,-0.173 -1.446,-0.228 2.945,0.323 5.716,1.163 7.704,2.56 4.884,3.428 8.315,10.057 8.819,17.446 1.062,15.58 -7.58,28.271 -23.389,29.331 -6.493,0.436 -12.889,-0.797 -19.746,-2.108 0.355,-14.443 0.571,-32.259 0.191,-48.12 -0.155,-6.441 0.285,-11.614 -4.601,-13.228 -1.562,-0.516 -1.559,0.286 -1.918,-0.958 -0.423,-1.461 1.53,-1.524 3.643,-1.917 5.55,-1.035 11.476,-1.99 16.487,-3.067 0.149,6.796 -0.105,14.848 0,22.239 0.188,-0.115 0.385,-0.224 0.586,-0.33 -0.202,0.086 -0.335,0.137 -0.356,0.137 -0.055,0 -0.047,-5.003 0.019,-11.119 0.092,-8.616 0.066,-11.12 -0.113,-11.123 -0.623,-0.011 -20.203,3.724 -20.418,3.895 -0.16,0.127 -0.228,0.542 -0.192,1.169 0.064,1.089 -0.065,1.003 2.322,1.539 0.719,0.161 1.56,0.474 1.868,0.694 0.797,0.567 1.46,1.795 1.918,3.556 0.362,1.389 0.411,2.382 0.578,11.773 0.171,9.587 0.138,19.446 -0.126,37.503 l -0.109,7.501 1.404,0.318 c 2.03,0.463 7.842,1.43 9.744,1.622 2.79,0.282 9.292,0.244 11.363,-0.068 8.99,-1.355 15.768,-6.569 18.926,-14.563 0.838,-2.118 1.642,-5.382 1.924,-7.805 0.331,-2.843 0.146,-8.518 -0.354,-10.801 -1.907,-8.751 -7.373,-14.796 -14.758,-16.324 z m 0.569,17.955 c 0.11,0.62 0.184,1.679 0.224,2.935 0.172,2.34 0.133,4.767 -0.099,7.15 -0.056,0.911 -0.13,1.702 -0.219,2.272 -0.882,5.586 -2.485,9.897 -4.718,12.683 -1.082,1.35 -2.88,2.627 -4.285,3.044 -0.907,0.27 -2.85,0.333 -4.58,0.15 -0.388,-0.041 -0.802,-0.191 -0.921,-0.335 -0.329,-0.396 -0.685,-26.421 -0.466,-34.035 l 0.174,-6.039 1.533,-0.442 c 2.263,-0.653 4.698,-0.551 6.426,0.268 3.47,1.644 5.748,5.705 6.931,12.349 z"
   fill="#FFFFFF" />
	<path
   id="path26"
   d="m 161.522,74.81 c -0.381,13.113 -0.1,26.562 0.192,39.876 2.013,0.42 4.438,0.75 6.518,-0.191 4.477,-2.026 7.431,-9.523 8.208,-17.522 0.132,-2.142 0.168,-4.95 0.099,-7.15 -0.732,-9.983 -5.291,-18.385 -15.017,-15.013 z m 14.405,23.293 c -0.86,6.695 -3.049,12.1 -5.961,14.718 -1.161,1.045 -2.244,1.599 -3.636,1.863 -1.011,0.191 -1.312,0.196 -3.14,0.053 -0.776,-0.061 -0.948,-0.148 -1.105,-0.561 -0.244,-0.644 -0.536,-23.115 -0.417,-32.091 l 0.094,-7.007 1.271,-0.374 c 0.848,-0.25 1.845,-0.375 3.004,-0.375 1.622,0 1.833,0.048 3.2,0.724 3.295,1.629 5.554,5.675 6.605,11.831 0.388,2.277 0.436,8.492 0.085,11.219 z"
   fill="#FFFFFF" />
</g>
<g
   transform="matrix(0.9,0,0,0.9,14.338743,8.380609)"
   id="XMLID_1_">
	<g
   id="g32">
		<path
   id="path30"
   d="m 104.603,89.288 c 0.307,2.596 0.107,8.082 -0.375,10.349 -1.975,9.27 -7.726,15.745 -16.154,18.186 -0.907,0.263 -2.316,0.571 -3.128,0.685 -1.719,0.238 -6.971,0.234 -8.634,-0.01 -4.649,-0.676 -8.715,-2.644 -11.819,-5.718 -2.59,-2.566 -4.27,-5.388 -5.508,-9.252 -1.932,-6.035 -1.932,-13.794 -0.002,-19.707 1.873,-5.73 6.087,-10.717 11.244,-13.307 7.145,-3.584 17.198,-3.36 23.814,0.535 5.952,3.504 9.56,9.731 10.562,18.239 z m -0.27,4.981 c 0.295,-8.422 -2.245,-15.6 -7.157,-20.228 -3.985,-3.757 -9.008,-5.558 -15.501,-5.558 -6.884,0 -12.427,2.134 -16.692,6.427 -4.568,4.597 -6.984,11.011 -6.984,18.538 0,7.809 2.182,14.111 6.417,18.529 2.335,2.435 4.607,3.896 7.866,5.055 1.152,0.41 2,0.606 5.08,1.18 0.263,0.048 2.032,0.058 3.931,0.019 2.569,-0.05 3.867,-0.164 5.08,-0.448 3.401,-0.794 6.112,-2.005 8.537,-3.816 5.894,-4.405 9.124,-11.158 9.423,-19.698 z"
   fill="#FFFFFF" />
	</g>
</g>
</svg>
